<svg width="287" height="53" viewBox="0 0 287 53" fill="none" xmlns="http://www.w3.org/2000/svg">
<path d="M30.7184 53C27.4712 53 24.9601 52.2435 23.1849 50.7304C21.4098 49.2174 20.2625 46.8181 19.7429 43.5326C18.6605 45.0457 17.2751 46.2345 15.5865 47.0991C13.9413 47.9205 12.1012 48.3312 10.0663 48.3312C6.8191 48.3312 4.32959 47.4666 2.59775 45.7374C0.865918 44.0082 0 41.6954 0 38.7989C0 37.0697 0.368015 35.4054 1.10405 33.8059C1.88337 32.2064 3.1606 30.7149 4.93573 29.3316C6.71086 27.9482 9.07049 26.7161 12.0146 25.6354L19.0285 22.9768V20.1236C19.0285 19.648 19.1801 19.2806 19.4832 19.0212C19.8295 18.7618 20.2192 18.6321 20.6521 18.6321H24.8085C25.1982 18.6321 25.5013 18.7834 25.7178 19.0861C25.9775 19.3454 26.1074 19.6697 26.1074 20.0587V38.4099C26.1074 40.8307 26.4971 42.4519 27.2764 43.2732C28.0557 44.0514 29.4845 44.4405 31.5627 44.4405H33.7708C34.0739 44.4405 34.2903 44.5485 34.4202 44.7647C34.5934 44.9808 34.68 45.2402 34.68 45.5428V51.314C34.68 52.438 34.0522 53 32.7966 53H30.7184ZM12.0796 41.1334C13.465 41.1334 14.6773 40.8524 15.7164 40.2904C16.7555 39.6852 17.5781 38.8638 18.1843 37.8263C18.7904 36.7887 19.0935 35.6864 19.0935 34.5192V29.5909L13.5733 31.4066C11.5384 32.0983 9.9797 32.9413 8.89731 33.9356C7.8582 34.9299 7.33865 36.0322 7.33865 37.2427C7.33865 38.4963 7.77161 39.469 8.63753 40.1607C9.50345 40.8091 10.6508 41.1334 12.0796 41.1334ZM18.5739 13.3148C18.3575 13.5742 18.076 13.7039 17.7297 13.7039C17.3833 13.7039 17.0586 13.5526 16.7555 13.25L13.9629 10.4617C13.7031 10.1591 13.5733 9.85644 13.5733 9.55383C13.5733 9.20799 13.7031 8.88377 13.9629 8.58115L16.7555 5.79282C17.0586 5.49021 17.3833 5.33891 17.7297 5.33891C18.076 5.33891 18.3575 5.49021 18.5739 5.79282L21.4315 8.58115C21.7345 8.84054 21.8861 9.16476 21.8861 9.55383C21.9294 9.89967 21.7995 10.2239 21.4964 10.5265L18.5739 13.3148ZM28.4454 13.3148C28.1856 13.6175 27.8826 13.7471 27.5362 13.7039C27.1898 13.6607 26.8867 13.5094 26.627 13.25L23.7045 10.4617C23.4447 10.2023 23.3148 9.89967 23.3148 9.55383C23.3148 9.16476 23.4447 8.84054 23.7045 8.58115L26.627 5.79282C26.8867 5.49021 27.1682 5.33891 27.4712 5.33891C27.7743 5.33891 28.0774 5.49021 28.3805 5.79282L31.238 8.58115C31.5411 8.84054 31.6926 9.16476 31.6926 9.55383C31.6926 9.89967 31.5411 10.2239 31.238 10.5265L28.4454 13.3148Z" fill="#122040"/>
<path d="M33.1026 53C32.6263 53 32.28 52.9135 32.0635 52.7406C31.847 52.5245 31.7388 52.2435 31.7388 51.8976V45.9967C31.7388 45.3915 31.9119 44.9808 32.2583 44.7647C32.6047 44.5485 33.0809 44.4405 33.6871 44.4405H52.0012C52.6507 44.4405 52.9754 44.7647 52.9754 45.4131V51.4437C52.9754 52.0489 52.8022 52.4596 52.4558 52.6758C52.1095 52.8919 51.6332 53 51.0271 53H33.1026Z" fill="#122040"/>
<path d="M51.4315 53C50.9552 53 50.6088 52.9135 50.3924 52.7406C50.1759 52.5245 50.0676 52.2435 50.0676 51.8976V45.9967C50.0676 45.3915 50.2408 44.9808 50.5872 44.7647C50.9336 44.5485 51.4098 44.4405 52.016 44.4405H70.3301C70.9796 44.4405 71.3043 44.7647 71.3043 45.4131V51.4437C71.3043 52.0489 71.1311 52.4596 70.7847 52.6758C70.4384 52.8919 69.9621 53 69.356 53H51.4315Z" fill="#122040"/>
<path d="M69.7603 53C69.2841 53 68.9377 52.9135 68.7212 52.7406C68.5048 52.5245 68.3965 52.2435 68.3965 51.8976V45.9967C68.3965 45.3915 68.5697 44.9808 68.9161 44.7647C69.2624 44.5485 69.7387 44.4405 70.3448 44.4405H88.659C89.3084 44.4405 89.6332 44.7647 89.6332 45.4131V51.4437C89.6332 52.0489 89.46 52.4596 89.1136 52.6758C88.7672 52.8919 88.291 53 87.6848 53H69.7603Z" fill="#122040"/>
<path d="M88.0892 53C87.613 53 87.2666 52.9135 87.0501 52.7406C86.8336 52.5245 86.7254 52.2435 86.7254 51.8976V45.9967C86.7254 45.3915 86.8986 44.9808 87.2449 44.7647C87.5913 44.5485 88.0676 44.4405 88.6737 44.4405H106.988C107.637 44.4405 107.962 44.7647 107.962 45.4131V51.4437C107.962 52.0489 107.789 52.4596 107.442 52.6758C107.096 52.8919 106.62 53 106.014 53H88.0892Z" fill="#122040"/>
<path d="M106.418 53C105.942 53 105.595 52.9135 105.379 52.7406C105.163 52.5245 105.054 52.2435 105.054 51.8976V45.9967C105.054 45.3915 105.227 44.9808 105.574 44.7647C105.92 44.5485 106.396 44.4405 107.003 44.4405H125.317C125.966 44.4405 126.291 44.7647 126.291 45.4131V51.4437C126.291 52.0489 126.118 52.4596 125.771 52.6758C125.425 52.8919 124.949 53 124.343 53H106.418Z" fill="#122040"/>
<path d="M124.747 53C124.271 53 123.924 52.9135 123.708 52.7406C123.491 52.5245 123.383 52.2435 123.383 51.8976V45.9967C123.383 45.3915 123.556 44.9808 123.903 44.7647C124.249 44.5485 124.725 44.4405 125.331 44.4405H143.646C144.295 44.4405 144.62 44.7647 144.62 45.4131V51.4437C144.62 52.0489 144.447 52.4596 144.1 52.6758C143.754 52.8919 143.278 53 142.671 53H124.747Z" fill="#122040"/>
<path d="M143.076 53C142.6 53 142.253 52.9135 142.037 52.7406C141.82 52.5245 141.712 52.2435 141.712 51.8976V45.9967C141.712 45.3915 141.885 44.9808 142.232 44.7647C142.578 44.5485 143.054 44.4405 143.66 44.4405H161.975C162.624 44.4405 162.949 44.7647 162.949 45.4131V51.4437C162.949 52.0489 162.775 52.4596 162.429 52.6758C162.083 52.8919 161.606 53 161 53H143.076Z" fill="#122040"/>
<path d="M161.405 53C160.928 53 160.582 52.9135 160.366 52.7406C160.149 52.5245 160.041 52.2435 160.041 51.8976V45.9967C160.041 45.3915 160.214 44.9808 160.56 44.7647C160.907 44.5485 161.383 44.4405 161.989 44.4405H180.303C180.953 44.4405 181.278 44.7647 181.278 45.4131V51.4437C181.278 52.0489 181.104 52.4596 180.758 52.6758C180.412 52.8919 179.935 53 179.329 53H161.405Z" fill="#122040"/>
<path d="M179.734 53C179.257 53 178.911 52.9135 178.694 52.7406C178.478 52.5245 178.37 52.2435 178.37 51.8976V45.9967C178.37 45.3915 178.543 44.9808 178.889 44.7647C179.236 44.5485 179.712 44.4405 180.318 44.4405H198.632C199.282 44.4405 199.606 44.7647 199.606 45.4131V51.4437C199.606 52.0489 199.433 52.4596 199.087 52.6758C198.74 52.8919 198.264 53 197.658 53H179.734Z" fill="#122040"/>
<path d="M198.062 53C197.586 53 197.24 52.9135 197.023 52.7406C196.807 52.5245 196.699 52.2435 196.699 51.8976V45.9967C196.699 45.3915 196.872 44.9808 197.218 44.7647C197.565 44.5485 198.041 44.4405 198.647 44.4405H216.961C217.611 44.4405 217.935 44.7647 217.935 45.4131V51.4437C217.935 52.0489 217.762 52.4596 217.416 52.6758C217.069 52.8919 216.593 53 215.987 53H198.062Z" fill="#122040"/>
<path d="M216.132 53C215.396 53 215.028 52.6109 215.028 51.8328V46.0616C215.028 45.5428 215.179 45.1537 215.482 44.8944C215.785 44.5918 216.197 44.4405 216.716 44.4405C218.231 44.4405 219.617 44.4188 220.872 44.3756C222.128 44.3324 223.232 44.2675 224.185 44.1811C225.137 44.0514 225.938 43.9217 226.588 43.792C225.808 43.0571 225.051 42.2573 224.314 41.3927C223.578 40.4849 222.972 39.4906 222.496 38.4099C222.063 37.2859 221.847 36.0538 221.847 34.7137C221.847 32.3793 222.409 30.3259 223.535 28.5534C224.661 26.7378 226.176 25.3112 228.081 24.2737C230.03 23.2361 232.194 22.7174 234.576 22.7174C236.87 22.7174 238.905 23.2361 240.68 24.2737C242.455 25.3112 243.863 26.7378 244.902 28.5534C245.941 30.3259 246.46 32.2928 246.46 34.4543C246.46 36.3132 246.049 37.9992 245.226 39.5122C244.404 40.9821 243.192 42.4303 241.59 43.8568C242.759 44.0298 243.776 44.1595 244.642 44.2459C245.551 44.3324 246.59 44.3972 247.759 44.4405C248.928 44.4405 250.465 44.4405 252.37 44.4405C252.673 44.4405 252.933 44.5485 253.15 44.7647C253.366 44.9376 253.474 45.197 253.474 45.5428V50.7953C253.474 52.2651 252.717 53 251.201 53C248.777 53 246.742 52.9568 245.097 52.8703C243.495 52.7839 242.087 52.6325 240.875 52.4164C239.663 52.157 238.494 51.8328 237.368 51.4437C236.286 51.0546 235.074 50.5359 233.731 49.8874C232.649 50.4927 231.61 51.0114 230.614 51.4437C229.662 51.8328 228.557 52.1354 227.302 52.3515C226.09 52.5677 224.596 52.719 222.821 52.8055C221.089 52.9352 218.859 53 216.132 53ZM234.316 41.9115C236.091 40.9172 237.433 39.8365 238.342 38.6693C239.252 37.4588 239.706 36.2484 239.706 35.0379C239.706 33.4816 239.23 32.228 238.277 31.2769C237.325 30.2826 236.026 29.7855 234.381 29.7855C232.865 29.7855 231.545 30.2394 230.419 31.1472C229.337 32.0551 228.796 33.2871 228.796 34.8434C228.796 36.3564 229.294 37.6533 230.289 38.7341C231.285 39.8148 232.627 40.874 234.316 41.9115ZM230.614 16.6219C230.398 16.8813 230.116 17.011 229.77 17.011C229.423 17.011 229.099 16.8597 228.796 16.5571L226.003 13.7688C225.743 13.4661 225.613 13.1635 225.613 12.8609C225.613 12.5151 225.743 12.1909 226.003 11.8883L228.796 9.09992C229.099 8.79731 229.423 8.646 229.77 8.646C230.116 8.646 230.398 8.79731 230.614 9.09992L233.472 11.8883C233.775 12.1476 233.926 12.4719 233.926 12.8609C233.969 13.2068 233.84 13.531 233.537 13.8336L230.614 16.6219ZM240.486 16.6219C240.226 16.9246 239.923 17.0542 239.576 17.011C239.23 16.9678 238.927 16.8165 238.667 16.5571L235.745 13.7688C235.485 13.5094 235.355 13.2068 235.355 12.8609C235.355 12.4719 235.485 12.1476 235.745 11.8883L238.667 9.09992C238.927 8.79731 239.208 8.646 239.511 8.646C239.814 8.646 240.117 8.79731 240.421 9.09992L243.278 11.8883C243.581 12.1476 243.733 12.4719 243.733 12.8609C243.733 13.2068 243.581 13.531 243.278 13.8336L240.486 16.6219Z" fill="#122040"/>
<path d="M251.908 53C251.431 53 251.085 52.9135 250.868 52.7406C250.652 52.5245 250.544 52.2435 250.544 51.8976V45.9967C250.544 45.3915 250.717 44.9808 251.063 44.7647C251.41 44.5485 251.886 44.4405 252.492 44.4405H270.806C271.456 44.4405 271.78 44.7647 271.78 45.4131V51.4437C271.78 52.0489 271.607 52.4596 271.261 52.6758C270.914 52.8919 270.438 53 269.832 53H251.908Z" fill="#122040"/>
<path d="M269.977 53C269.587 53 269.306 52.8919 269.132 52.6758C268.959 52.4164 268.873 52.1354 268.873 51.8328V45.9967C268.873 45.3915 269.046 44.9808 269.392 44.7647C269.738 44.5485 270.215 44.4405 270.821 44.4405H271.405C273.267 44.4405 274.609 43.9649 275.432 43.0139C276.254 42.0196 276.666 40.5065 276.666 38.4747C276.666 37.783 276.623 37.1346 276.536 36.5294C276.493 35.9241 276.384 35.2757 276.211 34.584L275.107 29.5909C274.977 28.9425 275.042 28.467 275.302 28.1644C275.562 27.8617 275.951 27.6456 276.471 27.5159L280.173 26.7378C281.342 26.4784 282.056 26.9539 282.316 28.1644L283.615 34.3895C283.831 35.3405 283.983 36.3564 284.069 37.4372C284.199 38.5179 284.264 39.4042 284.264 40.0958C284.264 43.9433 283.312 47.0559 281.407 49.4335C279.502 51.8112 276.687 53 272.964 53H269.977ZM278.809 12.6664C278.549 12.8825 278.268 12.9906 277.965 12.9906C277.662 12.9474 277.359 12.8177 277.055 12.6015L274.393 9.87806C273.83 9.31607 273.83 8.75408 274.393 8.19209L277.055 5.4686C277.618 4.94983 278.181 4.94983 278.744 5.4686L281.407 8.19209C282.013 8.79731 282.035 9.38091 281.472 9.9429L278.809 12.6664ZM273.938 21.4205C273.722 21.6366 273.44 21.7447 273.094 21.7447C272.748 21.7447 272.423 21.615 272.12 21.3556L269.327 18.5024C269.067 18.2431 268.938 17.9405 268.938 17.5946C268.938 17.2488 269.067 16.9246 269.327 16.6219L272.12 13.8336C272.726 13.1852 273.332 13.1852 273.938 13.8336L276.796 16.6219C277.099 16.8813 277.25 17.2055 277.25 17.5946C277.294 17.9837 277.164 18.3079 276.861 18.5673L273.938 21.4205ZM283.81 21.4205C283.55 21.6799 283.247 21.7879 282.9 21.7447C282.554 21.7015 282.251 21.5718 281.991 21.3556L279.069 18.5024C278.809 18.2431 278.679 17.9405 278.679 17.5946C278.679 17.2055 278.809 16.8813 279.069 16.6219L281.991 13.8336C282.597 13.2284 283.182 13.2284 283.745 13.8336L286.602 16.6219C286.862 16.8813 286.992 17.2055 286.992 17.5946C287.035 17.9405 286.905 18.2647 286.602 18.5673L283.81 21.4205Z" fill="#122040"/>
<path d="M65.7391 39.2312C65.3783 39.2312 65.0717 39.1052 64.8191 38.853C64.5666 38.6008 64.4403 38.2946 64.4403 37.9343V8.05159H54.4281C54.0673 8.05159 53.7606 7.9255 53.5081 7.67333C53.2555 7.42115 53.1292 7.11494 53.1292 6.75469V2.75591C53.1292 2.35964 53.2555 2.03541 53.5081 1.78324C53.7606 1.53106 54.0673 1.40497 54.4281 1.40497H82.0292C82.4261 1.40497 82.7508 1.53106 83.0034 1.78324C83.2559 2.03541 83.3822 2.35964 83.3822 2.75591V6.75469C83.3822 7.11494 83.2559 7.42115 83.0034 7.67333C82.7508 7.9255 82.4261 8.05159 82.0292 8.05159H72.0712V37.9343C72.0712 38.2946 71.9449 38.6008 71.6923 38.853C71.4398 39.1052 71.1151 39.2312 70.7182 39.2312H65.7391Z" fill="#1D9E75"/>
<path d="M88.5731 39.2312C88.2123 39.2312 87.9056 39.1052 87.653 38.853C87.4005 38.6008 87.2742 38.2946 87.2742 37.9343V2.1615C87.2742 1.80125 87.4005 1.49504 87.653 1.24286C87.9056 0.990687 88.2123 0.864599 88.5731 0.864599H93.3897C93.7866 0.864599 94.0933 0.990687 94.3098 1.24286C94.5623 1.49504 94.6886 1.80125 94.6886 2.1615V14.4821C95.6628 13.3293 96.8534 12.3926 98.2605 11.6721C99.6676 10.9516 101.399 10.5914 103.456 10.5914C105.657 10.5914 107.569 11.0957 109.193 12.1044C110.852 13.0771 112.133 14.464 113.035 16.2653C113.937 18.0665 114.388 20.228 114.388 22.7498V37.9343C114.388 38.2946 114.262 38.6008 114.009 38.853C113.757 39.1052 113.45 39.2312 113.089 39.2312H108.219C107.858 39.2312 107.551 39.1052 107.299 38.853C107.046 38.6008 106.92 38.2946 106.92 37.9343V23.074C106.92 20.9846 106.397 19.3454 105.35 18.1566C104.34 16.9678 102.861 16.3734 100.912 16.3734C99.0362 16.3734 97.5209 16.9678 96.3663 18.1566C95.2479 19.3454 94.6886 20.9846 94.6886 23.074V37.9343C94.6886 38.2946 94.5623 38.6008 94.3098 38.853C94.0933 39.1052 93.7866 39.2312 93.3897 39.2312H88.5731Z" fill="#1D9E75"/>
<path d="M122.555 39.2312C122.194 39.2312 121.888 39.1052 121.635 38.853C121.383 38.6008 121.256 38.2946 121.256 37.9343V12.4286C121.256 12.0684 121.383 11.7622 121.635 11.51C121.888 11.2578 122.194 11.1317 122.555 11.1317H127.047C127.444 11.1317 127.751 11.2578 127.967 11.51C128.22 11.7622 128.346 12.0684 128.346 12.4286V37.9343C128.346 38.2946 128.22 38.6008 127.967 38.853C127.751 39.1052 127.444 39.2312 127.047 39.2312H122.555ZM122.339 6.4845C121.942 6.4845 121.617 6.37643 121.365 6.16027C121.148 5.9081 121.04 5.58388 121.04 5.1876V1.2969C121.04 0.93665 121.148 0.630437 121.365 0.378261C121.617 0.126087 121.942 0 122.339 0H127.264C127.661 0 127.985 0.126087 128.238 0.378261C128.49 0.630437 128.617 0.93665 128.617 1.2969V5.1876C128.617 5.58388 128.49 5.9081 128.238 6.16027C127.985 6.37643 127.661 6.4845 127.264 6.4845H122.339Z" fill="#1D9E75"/>
<path d="M155.605 49.4984C155.244 49.4984 154.937 49.3723 154.685 49.1201C154.432 48.8679 154.306 48.5617 154.306 48.2015V35.935C153.44 37.0877 152.321 38.0244 150.95 38.7449C149.579 39.4294 147.92 39.7716 145.971 39.7716C144.131 39.7716 142.49 39.4474 141.047 38.7989C139.639 38.1505 138.449 37.2679 137.475 36.1511C136.537 34.9983 135.815 33.6654 135.31 32.1523C134.805 30.6032 134.516 28.9281 134.444 27.1268C134.408 26.4784 134.39 25.8299 134.39 25.1815C134.39 24.533 134.408 23.9026 134.444 23.2902C134.552 21.4169 134.841 19.7057 135.31 18.1566C135.815 16.6075 136.537 15.2746 137.475 14.1578C138.449 13.005 139.639 12.1224 141.047 11.51C142.49 10.8976 144.131 10.5914 145.971 10.5914C148.064 10.5914 149.814 10.9696 151.221 11.7261C152.664 12.4827 153.801 13.4373 154.631 14.5901V12.4286C154.631 12.0684 154.757 11.7622 155.009 11.51C155.262 11.2578 155.569 11.1317 155.929 11.1317H160.259C160.62 11.1317 160.927 11.2578 161.179 11.51C161.432 11.7622 161.558 12.0684 161.558 12.4286V48.2015C161.558 48.5617 161.432 48.8679 161.179 49.1201C160.927 49.3723 160.62 49.4984 160.259 49.4984H155.605ZM148.028 33.9896C149.471 33.9896 150.644 33.6654 151.546 33.0169C152.448 32.3685 153.115 31.5579 153.548 30.5852C154.017 29.5765 154.27 28.5318 154.306 27.4511C154.378 26.7666 154.414 26.0641 154.414 25.3436C154.414 24.6231 154.378 23.9386 154.306 23.2902C154.27 22.1734 154.035 21.0926 153.602 20.0479C153.169 18.9672 152.502 18.0846 151.6 17.4001C150.698 16.7156 149.507 16.3734 148.028 16.3734C146.513 16.3734 145.304 16.7156 144.402 17.4001C143.5 18.0485 142.851 18.9131 142.454 19.9939C142.093 21.0746 141.876 22.2635 141.804 23.5604C141.732 24.6411 141.732 25.7219 141.804 26.8026C141.876 28.0995 142.093 29.2883 142.454 30.3691C142.851 31.4498 143.5 32.3325 144.402 33.0169C145.304 33.6654 146.513 33.9896 148.028 33.9896Z" fill="#1D9E75"/>
<path d="M176.942 39.7716C175.066 39.7716 173.37 39.4114 171.855 38.6909C170.339 37.9343 169.131 36.9436 168.229 35.7188C167.363 34.4579 166.93 33.0529 166.93 31.5039C166.93 28.9821 167.94 26.9827 169.96 25.5057C172.017 23.9927 174.723 22.984 178.078 22.4796L185.493 21.3989V20.2641C185.493 18.751 185.114 17.5802 184.356 16.7516C183.599 15.9231 182.3 15.5088 180.46 15.5088C179.161 15.5088 178.096 15.779 177.267 16.3193C176.473 16.8237 175.878 17.5082 175.481 18.3728C175.192 18.8411 174.777 19.0752 174.236 19.0752H169.96C169.564 19.0752 169.257 18.9672 169.04 18.751C168.86 18.5349 168.77 18.2467 168.77 17.8864C168.806 17.31 169.04 16.6075 169.473 15.779C169.906 14.9504 170.592 14.1578 171.53 13.4013C172.468 12.6088 173.677 11.9423 175.156 11.4019C176.635 10.8615 178.421 10.5914 180.514 10.5914C182.787 10.5914 184.699 10.8796 186.251 11.456C187.838 11.9963 189.101 12.7348 190.039 13.6715C190.977 14.6081 191.663 15.7069 192.096 16.9678C192.528 18.2287 192.745 19.5616 192.745 20.9666V37.9343C192.745 38.2946 192.619 38.6008 192.366 38.853C192.114 39.1052 191.807 39.2312 191.446 39.2312H187.062C186.665 39.2312 186.341 39.1052 186.088 38.853C185.872 38.6008 185.763 38.2946 185.763 37.9343V35.8269C185.294 36.5113 184.663 37.1598 183.869 37.7722C183.076 38.3486 182.101 38.835 180.947 39.2312C179.828 39.5915 178.493 39.7716 176.942 39.7716ZM178.782 34.6381C180.045 34.6381 181.181 34.3679 182.192 33.8275C183.238 33.2871 184.05 32.4585 184.627 31.3418C185.24 30.189 185.547 28.748 185.547 27.0188V25.884L180.135 26.7486C178.006 27.0728 176.419 27.5952 175.372 28.3157C174.326 29.0362 173.803 29.9188 173.803 30.9635C173.803 31.756 174.038 32.4405 174.507 33.0169C175.012 33.5573 175.643 33.9716 176.401 34.2598C177.158 34.512 177.952 34.6381 178.782 34.6381Z" fill="#1D9E75"/>
</svg>
