<svg width="59" height="59" viewBox="0 0 59 59" fill="none" xmlns="http://www.w3.org/2000/svg">
<path d="M50.6624 5.33402V16.0007M55.9958 10.6674H45.3291M7.99577 42.6674V48.0007M10.6624 45.334H5.3291M23.8278 38.6674C23.5897 37.7445 23.1087 36.9023 22.4348 36.2284C21.7608 35.5544 20.9186 35.0734 19.9958 34.8354L3.63577 30.6167C3.35665 30.5375 3.111 30.3694 2.93607 30.1379C2.76115 29.9064 2.6665 29.6242 2.6665 29.334C2.6665 29.0439 2.76115 28.7616 2.93607 28.5302C3.111 28.2987 3.35665 28.1306 3.63577 28.0514L19.9958 23.83C20.9183 23.5922 21.7603 23.1115 22.4342 22.4381C23.1081 21.7647 23.5893 20.9231 23.8278 20.0007L28.0464 3.64069C28.1249 3.36047 28.2928 3.1136 28.5246 2.93774C28.7565 2.76188 29.0395 2.66669 29.3304 2.66669C29.6214 2.66669 29.9044 2.76188 30.1362 2.93774C30.3681 3.1136 30.536 3.36047 30.6144 3.64069L34.8304 20.0007C35.0685 20.9235 35.5495 21.7657 36.2235 22.4397C36.8974 23.1136 37.7396 23.5946 38.6624 23.8327L55.0224 28.0487C55.3038 28.1263 55.5519 28.294 55.7287 28.5262C55.9055 28.7584 56.0012 29.0422 56.0012 29.334C56.0012 29.6259 55.9055 29.9096 55.7287 30.1418C55.5519 30.374 55.3038 30.5418 55.0224 30.6194L38.6624 34.8354C37.7396 35.0734 36.8974 35.5544 36.2235 36.2284C35.5495 36.9023 35.0685 37.7445 34.8304 38.6674L30.6118 55.0274C30.5333 55.3076 30.3654 55.5544 30.1336 55.7303C29.9018 55.9062 29.6188 56.0014 29.3278 56.0014C29.0368 56.0014 28.7538 55.9062 28.522 55.7303C28.2901 55.5544 28.1222 55.3076 28.0438 55.0274L23.8278 38.6674Z" stroke="#B0E4CC" stroke-width="5.33333" stroke-linecap="round" stroke-linejoin="round"/>
</svg>
